<svg width="141" height="112" viewBox="0 0 141 112" fill="none" xmlns="http://www.w3.org/2000/svg">
<path fill-rule="evenodd" clip-rule="evenodd" d="M49.8044 65.6134C47.0381 68.2428 43.3539 69.6872 39.5377 69.6384C35.7025 69.6963 31.9968 68.2517 29.2127 65.6134C27.9027 64.3431 26.8612 62.8226 26.15 61.1422C25.4388 59.4618 25.0723 57.6556 25.0723 55.8309C25.0723 54.0062 25.4388 52.2 26.15 50.5196C26.8612 48.8392 27.9027 47.3187 29.2127 46.0484C31.9933 43.3944 35.706 41.9404 39.5494 42.0001C43.3656 41.9512 47.0498 43.3956 49.816 46.0251C51.1275 47.2945 52.1702 48.8147 52.8824 50.4952C53.5946 52.1758 53.9616 53.9824 53.9616 55.8076C53.9616 57.6328 53.5946 59.4393 52.8824 61.1199C52.1702 62.8004 51.1275 64.3206 49.816 65.5901L49.8044 65.6134ZM39.5494 46.5034C38.3312 46.4916 37.1233 46.7268 35.9986 47.1946C34.8738 47.6625 33.8555 48.3534 33.005 49.2256C32.1546 50.0978 31.4897 51.1333 31.0505 52.2696C30.6112 53.4058 30.4068 54.6193 30.4494 55.8367C30.4494 57.0287 30.6841 58.209 31.1403 59.3102C31.5964 60.4114 32.265 61.4121 33.1079 62.2549C33.9507 63.0977 34.9513 63.7663 36.0525 64.2225C37.1538 64.6786 38.3341 64.9134 39.526 64.9134C40.718 64.9134 41.8983 64.6786 42.9995 64.2225C44.1007 63.7663 45.1014 63.0977 45.9442 62.2549C46.787 61.4121 47.4556 60.4114 47.9118 59.3102C48.3679 58.209 48.6027 57.0287 48.6027 55.8367C48.6451 54.6232 48.4421 53.4137 48.0057 52.2806C47.5693 51.1474 46.9086 50.1141 46.0632 49.2425C45.2177 48.371 44.205 47.6791 43.0857 47.2084C41.9664 46.7377 40.7636 46.4979 39.5494 46.5034V46.5034ZM83.8827 45.2551L72.7877 70.0001L72.1577 69.8834C68.9844 69.3117 68.3427 68.5184 66.861 65.2984L58.5427 47.1801H55.416V42.7817H67.2344V47.1801H64.411L71.096 62.1717L77.5827 47.1801H74.0827V42.7817H83.8827V45.2551ZM110.716 65.6134C107.914 68.2011 104.24 69.6381 100.426 69.6381C96.612 69.6381 92.938 68.2011 90.136 65.6134C88.8261 64.3431 87.7846 62.8226 87.0733 61.1422C86.3621 59.4618 85.9956 57.6556 85.9956 55.8309C85.9956 54.0062 86.3621 52.2 87.0733 50.5196C87.7846 48.8392 88.8261 47.3187 90.136 46.0484C92.938 43.4607 96.612 42.0237 100.426 42.0237C104.24 42.0237 107.914 43.4607 110.716 46.0484C112.03 47.3162 113.076 48.8358 113.79 50.5166C114.504 52.1973 114.872 54.0048 114.872 55.8309C114.872 57.657 114.504 59.4644 113.79 61.1452C113.076 62.826 112.03 64.3456 110.716 65.6134ZM100.508 46.5034C99.289 46.4917 98.0806 46.7268 96.9553 47.1945C95.8299 47.6622 94.8108 48.3529 93.9595 49.225C93.1081 50.097 92.4421 51.1324 92.0016 52.2687C91.561 53.405 91.355 54.6187 91.396 55.8367C91.396 57.0287 91.6308 58.209 92.087 59.3102C92.5431 60.4114 93.2117 61.4121 94.0545 62.2549C94.8974 63.0977 95.898 63.7663 96.9992 64.2225C98.1004 64.6786 99.2807 64.9134 100.473 64.9134C101.665 64.9134 102.845 64.6786 103.946 64.2225C105.047 63.7663 106.048 63.0977 106.891 62.2549C107.734 61.4121 108.402 60.4114 108.858 59.3102C109.315 58.209 109.549 57.0287 109.549 55.8367C109.593 54.6238 109.392 53.4145 108.957 52.2814C108.522 51.1484 107.862 50.1149 107.018 49.2432C106.173 48.3714 105.161 47.6794 104.042 47.2085C102.924 46.7377 101.721 46.4979 100.508 46.5034" fill="#4B2489"/>
</svg>
